<?xml version="1.0" encoding="UTF-8"?>
<svg id="Layer_1" data-name="Layer 1" xmlns="http://www.w3.org/2000/svg" xmlns:xlink="http://www.w3.org/1999/xlink" viewBox="0 0 542.12 542.12">
  <defs>
    <style>
      .cls-1 {
        fill: #153d68;
      }

      .cls-1, .cls-2, .cls-3 {
        stroke-width: 0px;
      }

      .cls-2 {
        fill: url(#linear-gradient);
      }

      .cls-3 {
        fill: #fff;
      }
    </style>
    <linearGradient id="linear-gradient" x1="68.56" y1="226.82" x2="473.56" y2="226.82" gradientUnits="userSpaceOnUse">
      <stop offset="0" stop-color="#142349"/>
      <stop offset=".02" stop-color="#16274e"/>
      <stop offset=".23" stop-color="#294b7d"/>
      <stop offset=".39" stop-color="#35629a"/>
      <stop offset=".48" stop-color="#3a6ba5"/>
      <stop offset=".65" stop-color="#648cb9"/>
      <stop offset="1" stop-color="#bfd4e5"/>
    </linearGradient>
  </defs>
  <rect class="cls-3" width="542.12" height="542.12"/>
  <g>
    <g>
      <g>
        <path class="cls-1" d="m68.56,314.52l16.27-40.76h4.89l16.21,40.76h-4.6l-14.68-37.97h1.3l-14.74,37.97h-4.66Zm6.54-9.49v-3.73h24.4v3.73h-24.4Z"/>
        <path class="cls-1" d="m126.26,314.52v-40.76h4.3v40.76h-4.3Zm2.77,0v-3.84h23.87v3.84h-23.87Z"/>
        <path class="cls-1" d="m164.93,277.71v-3.96h34.78v3.96h-34.78Zm15.21,36.8v-40.76h4.36v40.76h-4.36Z"/>
        <path class="cls-1" d="m212.32,314.52l16.27-40.76h4.89l16.21,40.76h-4.6l-14.68-37.97h1.3l-14.74,37.97h-4.66Zm6.54-9.49v-3.73h24.4v3.73h-24.4Z"/>
        <path class="cls-1" d="m269.72,314.52v-40.76h4.3v40.76h-4.3Zm29.47,0l-29.41-40.76h5.07l29.41,40.76h-5.07Zm.83,0v-40.76h4.3v40.76h-4.3Z"/>
        <path class="cls-1" d="m348.76,315.45c-3.03,0-5.85-.54-8.46-1.63-2.61-1.09-4.9-2.6-6.87-4.54-1.97-1.94-3.5-4.2-4.6-6.78-1.1-2.58-1.65-5.37-1.65-8.36s.55-5.77,1.65-8.36c1.1-2.58,2.63-4.84,4.6-6.78,1.96-1.94,4.25-3.45,6.87-4.54,2.61-1.09,5.43-1.63,8.46-1.63s5.84.54,8.46,1.63c2.61,1.09,4.9,2.6,6.87,4.54,1.96,1.94,3.5,4.2,4.6,6.78,1.1,2.58,1.65,5.37,1.65,8.36s-.55,5.78-1.65,8.36c-1.1,2.58-2.63,4.84-4.6,6.78-1.97,1.94-4.25,3.46-6.87,4.54-2.61,1.09-5.43,1.63-8.46,1.63Zm0-3.96c2.51,0,4.81-.42,6.9-1.25,2.08-.83,3.89-2.02,5.42-3.55,1.53-1.53,2.72-3.36,3.57-5.47.84-2.12,1.27-4.47,1.27-7.08s-.42-4.96-1.27-7.08c-.85-2.12-2.03-3.94-3.57-5.47-1.53-1.53-3.34-2.72-5.42-3.55-2.08-.83-4.38-1.25-6.9-1.25s-4.81.42-6.9,1.25c-2.08.84-3.89,2.02-5.42,3.55-1.53,1.53-2.72,3.36-3.57,5.47-.85,2.12-1.27,4.48-1.27,7.08s.42,4.96,1.27,7.08c.84,2.12,2.03,3.94,3.57,5.47,1.53,1.53,3.34,2.72,5.42,3.55,2.08.83,4.38,1.25,6.9,1.25Z"/>
        <path class="cls-1" d="m404.17,314.52l-16.03-40.76h4.77l14.15,37.56h-1.36l14.21-37.56h4.77l-16.09,40.76h-4.42Z"/>
        <path class="cls-1" d="m435.53,314.52l16.27-40.76h4.89l16.21,40.76h-4.6l-14.68-37.97h1.3l-14.74,37.97h-4.66Zm6.54-9.49v-3.73h24.4v3.73h-24.4Z"/>
      </g>
      <g>
        <path class="cls-1" d="m145.78,333.35h5.24c2.78,0,4.04,1.42,4.04,3.25,0,2.17-1.51,3.38-3.98,3.38h-3.71v4.41h-1.58v-11.03Zm1.58,5.31h3.49c1.53,0,2.6-.45,2.6-2.04,0-1.25-.85-1.96-2.6-1.96h-3.49v4Z"/>
        <path class="cls-1" d="m162.99,333.35h1.58v4.46h6.72v-4.46h1.58v11.03h-1.58v-5.25h-6.72v5.25h-1.58v-11.03Z"/>
        <path class="cls-1" d="m183.38,341.04l-1.44,3.34h-1.65l4.8-11.03h1.91l4.99,11.03h-1.72l-1.5-3.34h-5.4Zm4.89-1.33c-1.36-3.05-2.01-4.49-2.26-5.24h-.02c-.23.72-.99,2.61-2.12,5.24h4.39Z"/>
        <path class="cls-1" d="m201.04,339.63v4.75h-1.57v-11.03h5.33c2.29,0,3.82,1.04,3.82,2.99,0,1.33-.67,2.28-2.04,2.63.73.2,1.75.75,1.75,2.68v.49c0,.85,0,1.77.13,2.24h-1.61c-.17-.48-.15-1.32-.15-2.24v-.37c0-1.63-.64-2.14-2.6-2.14h-3.07Zm0-1.28h3.37c1.74,0,2.6-.6,2.6-1.92,0-1.2-.86-1.81-2.54-1.81h-3.42v3.72Z"/>
        <path class="cls-1" d="m227.56,339.63c0-2.06,0-4.05.07-5.19h-.02c-.55,1.66-2.49,6.15-4.08,9.94h-1.37c-1.2-3.09-3.32-8.19-3.93-9.93h-.02c.1,1.26.16,3.6.16,5.46v4.47h-1.46v-11.03h2.26c1.53,3.61,3.43,8.13,3.76,9.15h.02c.53-1.37,2.45-5.77,3.86-9.15h2.29v11.03h-1.54v-4.75Z"/>
        <path class="cls-1" d="m239.62,341.04l-1.44,3.34h-1.65l4.8-11.03h1.91l4.99,11.03h-1.72l-1.5-3.34h-5.4Zm4.89-1.33c-1.36-3.05-2.01-4.49-2.26-5.24h-.02c-.23.72-.99,2.61-2.12,5.24h4.39Z"/>
        <path class="cls-1" d="m276.34,344.38h-1.21c-.05-.28-.12-1.14-.12-1.63-.74,1.19-1.88,1.87-4.07,1.87-3.52,0-5.68-2.29-5.68-5.72,0-3.25,2.23-5.78,5.95-5.78,3.34,0,4.77,1.68,5.19,3.31h-1.63c-.43-1.03-1.4-2.03-3.57-2.03-2.79,0-4.27,1.94-4.27,4.41,0,2.6,1.49,4.52,4.23,4.52,2.33,0,3.65-1.17,3.65-3.34v-.33h-3.62v-1.31h5.15v6.03Z"/>
        <path class="cls-1" d="m286.41,339.63v4.75h-1.57v-11.03h5.33c2.29,0,3.82,1.04,3.82,2.99,0,1.33-.67,2.28-2.04,2.63.73.2,1.75.75,1.75,2.68v.49c0,.85,0,1.77.13,2.24h-1.61c-.17-.48-.15-1.32-.15-2.24v-.37c0-1.63-.64-2.14-2.6-2.14h-3.07Zm0-1.28h3.37c1.74,0,2.6-.6,2.6-1.92,0-1.2-.86-1.81-2.54-1.81h-3.42v3.72Z"/>
        <path class="cls-1" d="m313.36,338.83c0,3.12-2.13,5.78-5.88,5.78s-5.85-2.55-5.85-5.79c0-3.06,2.31-5.71,5.89-5.71s5.83,2.65,5.83,5.72Zm-10.05-.05c0,2.37,1.47,4.52,4.23,4.52s4.15-2.05,4.15-4.44-1.46-4.44-4.25-4.44c-2.6,0-4.13,2.03-4.13,4.36Z"/>
        <path class="cls-1" d="m323.03,333.35v6.27c0,2.89,1.72,3.69,3.41,3.69,2.05,0,3.28-.96,3.28-3.69v-6.27h1.58v6.25c0,3.59-1.9,5.01-4.91,5.01s-4.93-1.46-4.93-4.89v-6.37h1.58Z"/>
        <path class="cls-1" d="m340.1,333.35h5.24c2.78,0,4.04,1.42,4.04,3.25,0,2.17-1.51,3.38-3.98,3.38h-3.71v4.41h-1.58v-11.03Zm1.58,5.31h3.49c1.53,0,2.6-.45,2.6-2.04,0-1.25-.85-1.96-2.6-1.96h-3.49v4Z"/>
        <path class="cls-1" d="m369.29,341.04l-1.44,3.34h-1.65l4.8-11.03h1.91l4.99,11.03h-1.72l-1.5-3.34h-5.4Zm4.89-1.33c-1.36-3.05-2.01-4.49-2.26-5.24h-.02c-.23.72-.99,2.61-2.12,5.24h4.39Z"/>
        <path class="cls-1" d="m395.61,344.38h-1.21c-.05-.28-.12-1.14-.12-1.63-.74,1.19-1.88,1.87-4.07,1.87-3.52,0-5.68-2.29-5.68-5.72,0-3.25,2.23-5.78,5.95-5.78,3.34,0,4.77,1.68,5.19,3.31h-1.63c-.43-1.03-1.4-2.03-3.57-2.03-2.79,0-4.27,1.94-4.27,4.41,0,2.6,1.49,4.52,4.23,4.52,2.33,0,3.65-1.17,3.65-3.34v-.33h-3.62v-1.31h5.15v6.03Z"/>
      </g>
    </g>
    <path class="cls-2" d="m68.56,256.13c27.46-22.16,61-35.69,94.76-45.09,64-17.4,131.87-16.81,196.82-5.16,38.78,7.35,77.09,18.25,113.43,33.33-83.66-22.52-170.48-37.33-257.11-28.18-51.34,5.68-103.29,18.29-147.9,45.1h0Z"/>
  </g>
</svg>
